<svg id="Layer_2" data-name="Layer 2" xmlns="http://www.w3.org/2000/svg" viewBox="0 0 221.45 206.3"><defs><style>.cls-1{fill:#fff;}.cls-2{fill:#dbdbdb;}.cls-3{fill:#d6d6d6;}</style></defs><title>icon</title><path class="cls-1" d="M43.83,133v1.85h0v-.77C43.81,133.72,43.81,133.36,43.83,133Z"/><path class="cls-1" d="M194.78,72v.44a88.62,88.62,0,0,1-5.37,30.49,86.3,86.3,0,0,1-12.26,22.57V72Z"/><path class="cls-1" d="M184.64,135.35a86.12,86.12,0,0,0,10.14-16.88v54.07c0,17.77-14,32.16-31.22,32.16a29.9,29.9,0,0,1-4.66-.36A30.72,30.72,0,0,1,141.26,195a32.51,32.51,0,0,1-8.9-22.49v-5.4a78.88,78.88,0,0,0,8-1.75,77.58,77.58,0,0,0,10-3.45V173A13.93,13.93,0,0,0,156,184.31a13.2,13.2,0,0,0,7.76,2.54A13.66,13.66,0,0,0,177.15,173V143.89A85.87,85.87,0,0,0,184.64,135.35Z"/><path class="cls-1" d="M190.49,17a31,31,0,0,0-26.93-15.9,29.9,29.9,0,0,0-4.66.36,30.79,30.79,0,0,0-17.64,9.32,32.45,32.45,0,0,0-8.9,22.48V49.65A80.23,80.23,0,0,0,117,47c-2-.15-4.13-.24-6.22-.24a81.67,81.67,0,0,0-21.62,2.88V33.16a32.62,32.62,0,0,0-9-22.64A30.81,30.81,0,0,0,62.61,1.36,30.39,30.39,0,0,0,57.89,1c-17.24,0-31.2,14.41-31.2,32.16V70.88c0,.52,0,1,0,1.51v61c0,.5,0,1,0,1.49v37.74c0,17.75,14,32.16,31.2,32.16a30.39,30.39,0,0,0,4.72-.36q.78-.12,1.53-.27a30.92,30.92,0,0,0,15.92-8.9,32.58,32.58,0,0,0,9-22.63V156.12l0-19.33v-2.44c0-12.28,9.68-22.24,21.6-22.24a38.67,38.67,0,0,0,25.06-9.23,41.45,41.45,0,0,0,14.49-31.53V32.75A13.91,13.91,0,0,1,156,21.45a13.13,13.13,0,0,1,7.76-2.54,13.85,13.85,0,0,1,13.43,13.84V72a70.21,70.21,0,0,1-.47,7.73,69.49,69.49,0,0,1-6.79,23.2,68.48,68.48,0,0,1-20.22,24.37,66,66,0,0,1-17.31,9.35,65.17,65.17,0,0,1-21.89,3.78,63.5,63.5,0,0,1-8.89-.62v18.73c2.61.29,5.27.46,8,.5h1.2a82.22,82.22,0,0,0,21.63-2.89,81.27,81.27,0,0,0,17.92-7.28,84.83,84.83,0,0,0,26.4-22.76l.47-.62a86.3,86.3,0,0,0,12.26-22.57,88.62,88.62,0,0,0,5.37-30.49V33.21A32.65,32.65,0,0,0,190.49,17Zm-146.66,53V33A13.88,13.88,0,0,1,57.5,18.91a13.2,13.2,0,0,1,7.63,2.4,14.14,14.14,0,0,1,6,11.68V56.92A84.86,84.86,0,0,0,44.32,80.25c-.17.22-.34.46-.49.69v0c.17-.22.32-.44.49-.65-.27-2.23-.42-4.48-.49-6.77,0-.61,0-1.19,0-1.81S43.83,70.49,43.83,69.91Zm88.53,1.47h-.05c0,12.28-9.66,22.25-21.58,22.25a38.67,38.67,0,0,0-25.08,9.25,40.92,40.92,0,0,0-13.91,24.7,40.27,40.27,0,0,0-.57,6.83v38.35a14.16,14.16,0,0,1-6,11.68,10,10,0,0,1-1.42.84,13,13,0,0,1-6.21,1.57,13.89,13.89,0,0,1-13.67-14.09V135.85c0-.35,0-.67,0-1v-.77c0-.36,0-.72,0-1.08a68.77,68.77,0,0,1,.49-7.5,69.62,69.62,0,0,1,6.75-22.62,68.12,68.12,0,0,1,20.67-24.7,64.58,64.58,0,0,1,38.73-12.8,62.43,62.43,0,0,1,6.28.31,64.1,64.1,0,0,1,15.61,3.48Z"/><path class="cls-2" d="M150.28,148.83v13.11a77.58,77.58,0,0,1-10,3.45,78.88,78.88,0,0,1-8,1.75v-11A81.27,81.27,0,0,0,150.28,148.83Z"/><path class="cls-2" d="M194.78,72.39v46.08a86.85,86.85,0,0,1-17.63,25.42v-9.81a68.24,68.24,0,0,0-.47-8l.47-.62a86.3,86.3,0,0,0,12.26-22.57A88.62,88.62,0,0,0,194.78,72.39Z"/><path class="cls-3" d="M101.58,139.76v18.73a78,78,0,0,1-12.47-2.37l0-19.33A63.47,63.47,0,0,0,101.58,139.76Z"/></svg>